<svg width="91" height="91" fill="none" xmlns="http://www.w3.org/2000/svg"><rect x="20" y="9" width="50" height="50" rx="25" fill="#fff"/><path d="M39.378 39.164H31V20.708h8.378v18.456z" fill="#3B7DEF"/><path d="M52.156 31.392H40.234v-.374h11.922v.373zm-.054 1.174v.383H40.234v-.383h11.868zm-11.868 1.933h11.922v-.374H40.234v.374zm0 1.557h11.922v-.373H40.234v.373zm11.975 1.184v.374H40.234v-.374H52.21zm-11.975 1.933h12.01v-.374h-12.01v.374z" fill="#161616"/><path d="M58.69 39.173h-.374V21.082H40.608v10.025h-.374V20.708H58.69v18.465z" fill="#161616"/><path d="M57.133 39.173h-.374V22.64H42.167v8.493h-.374v-8.876l15.34.009v16.907z" fill="#161616"/><path d="M55.575 39.173h-.373V24.198H43.725v6.9h-.373v-7.283h12.223v15.358z" fill="#161616"/><path d="M54.015 39.173h-.374V25.747h-8.369v5.333h-.374v-5.707h9.117v13.8z" fill="#161616"/><path d="M52.458 39.172h-.374V27.305H46.83v3.81h-.374v-4.184h6.01l-.01 12.241z" fill="#161616"/><path d="M39.378 44.257H31v-.365h8.378v.365z" fill="#3B7DEF"/><path d="M58.686 44.257H40.23v-.365h18.456v.365zM32.12 42.035h.666l-.325-.901h-.016l-.325.9zm-1.057 1.155l1.057-2.742h.666l1.058 2.742h-.627l-.235-.626h-1.058l-.235.626h-.626zm3.25 0v-2.742h1.155c.29 0 .525.087.706.259a.87.87 0 01.274.662.87.87 0 01-.274.662c-.18.172-.416.258-.706.258H34.9v.901h-.587zm.587-1.449h.549a.39.39 0 00.282-.102c.073-.07.11-.16.11-.27a.346.346 0 00-.11-.267.381.381 0 00-.282-.105H34.9v.744zm1.744 1.45l.94-1.43-.861-1.313h.685l.56.901h.016l.56-.9h.686l-.862 1.312.94 1.43h-.685l-.639-1.02h-.016l-.638 1.02h-.686zm3.113 0v-2.743h.588v1.763l1.332-1.763h.529v2.742h-.588v-1.762l-1.332 1.762h-.529zm3.76 0v-2.194h-.784v-.549h2.155v.549h-.784v2.193h-.587zm1.899 0v-2.743h2.037v.549h-1.45v.529h1.137v.528h-1.136v.588h1.488v.548h-2.076zm2.703 0v-2.743h.588v1.175l1.057-1.175h.706l-1.019 1.136 1.097 1.606h-.686l-.803-1.175-.352.372v.803h-.588z" fill="#161616"/><path d="M51.47 43.19v-2.193h-.784v-.549h2.154v.549h-.783v2.193h-.588zm1.898 0v-2.742h.588v1.763l1.332-1.763h.529v2.742h-.588v-1.762l-1.332 1.762h-.529zm3.25 0v-2.742h1.156c.267 0 .48.07.639.212a.65.65 0 01.243.513.594.594 0 01-.188.447.643.643 0 01-.184.121c.091.026.176.07.254.133.17.144.255.321.255.533a.71.71 0 01-.259.556c-.17.152-.397.227-.681.227h-1.234zm.588-.509h.607c.115 0 .206-.03.27-.09a.308.308 0 00.103-.243.308.308 0 00-.102-.243.384.384 0 00-.27-.09h-.608v.666zm0-1.175h.53a.326.326 0 00.226-.075.258.258 0 00.086-.2.246.246 0 00-.086-.195.316.316 0 00-.227-.078h-.529v.548z" fill="#3B7DEF"/><path d="M31.172 46.425l.147-.147a.37.37 0 00.09.085c.08.054.172.082.272.082a.344.344 0 00.222-.065.2.2 0 00.082-.16c0-.058-.028-.108-.082-.151a.349.349 0 00-.222-.065h-.176v-.206h.176a.29.29 0 00.186-.054.165.165 0 00.069-.134.158.158 0 00-.069-.129.285.285 0 00-.186-.055.417.417 0 00-.239.075.425.425 0 00-.084.072l-.147-.147a.657.657 0 01.47-.196c.147 0 .261.035.345.104a.323.323 0 01.018.496.536.536 0 01-.108.066c.048.017.092.04.131.07a.316.316 0 01.133.263.369.369 0 01-.143.29.56.56 0 01-.376.122.685.685 0 01-.384-.108.55.55 0 01-.125-.108zm1.107.196l.548-1.371h.236l.548 1.371h-.225l-.137-.352h-.608l-.137.352h-.225zm.44-.548h.451l-.225-.568-.225.568zm1.323.352h.353a.216.216 0 00.158-.064.219.219 0 00.067-.161.213.213 0 00-.067-.159.213.213 0 00-.158-.066h-.353v.45zm-.215.196V45.25h.9v.206h-.685v.323h.353c.126 0 .231.04.315.121a.4.4 0 01.126.3.4.4 0 01-.126.3.435.435 0 01-.315.121h-.568zm1.577-1.046a.49.49 0 00-.147.36c0 .143.049.264.147.363.099.098.22.147.362.147a.49.49 0 00.36-.147c.1-.1.15-.22.15-.362a.487.487 0 00-.15-.36.487.487 0 00-.36-.15.493.493 0 00-.362.15zm-.155.862a.68.68 0 01-.208-.501.71.71 0 01.725-.705c.205 0 .377.068.515.205a.67.67 0 01.21.5c0 .197-.07.364-.21.501a.706.706 0 01-.515.204.713.713 0 01-.517-.204zm1.76.184v-1.165h-.41v-.206h1.038v.206h-.412v1.165h-.215zm.57 0l.549-1.371h.235l.548 1.371h-.225l-.137-.352h-.607l-.138.352h-.225zm.441-.548h.45l-.225-.568-.225.568zm1.459.548V45.25h.548c.12 0 .22.035.296.106.077.07.116.156.116.256a.307.307 0 01-.167.275.347.347 0 01.118.074.327.327 0 01.117.259c0 .11-.043.204-.129.284a.456.456 0 01-.321.117h-.578zm.215-.186h.363a.228.228 0 00.168-.065.215.215 0 00.067-.16.215.215 0 00-.067-.16.228.228 0 00-.168-.066h-.363v.451zm0-.627h.333a.195.195 0 00.141-.05.18.18 0 00.055-.136.17.17 0 00-.055-.133.19.19 0 00-.14-.053h-.334v.372zm1.527.813V45.25h.216v.666l.617-.666h.274l-.529.568.568.803h-.264l-.45-.646-.216.235v.411h-.215zm1.165 0l.548-1.371h.236l.548 1.371h-.225l-.137-.352h-.608l-.137.352h-.225zm.44-.548h.451l-.225-.568-.225.568zm.912.548l.568-.803-.529-.568h.274l.539.578v-.578h.215v.578l.539-.578h.274l-.529.568.568.803h-.264l-.45-.646-.138.147v.5h-.215v-.5l-.137-.147-.45.646h-.265zm1.92.294v-.5h.079a.595.595 0 00.117-.17c.078-.154.118-.349.118-.584v-.411h.89v1.165h.167v.5h-.215v-.294h-.94v.294h-.216zm.314-.5h.675v-.96h-.46v.206c0 .228-.036.422-.108.584a.696.696 0 01-.107.17zm1.576-.84a.49.49 0 00-.147.36c0 .143.049.264.147.363.099.098.22.147.362.147a.49.49 0 00.36-.147c.1-.1.15-.22.15-.362a.487.487 0 00-.15-.36.487.487 0 00-.36-.15.493.493 0 00-.362.15zm-.155.862a.68.68 0 01-.208-.501.71.71 0 01.725-.705c.205 0 .377.068.515.205a.67.67 0 01.21.5c0 .197-.07.364-.21.501a.706.706 0 01-.515.204.713.713 0 01-.517-.204zm1.544.184V45.25h.216v1.009l.754-1.009h.196v1.371h-.215v-1.009l-.755 1.01h-.196zm.294-1.822h.147a.133.133 0 00.137.138.133.133 0 00.137-.137h.147a.262.262 0 01-.08.195.28.28 0 01-.204.079.28.28 0 01-.203-.079.262.262 0 01-.08-.195zm1.479 2.116v-.5h.078a.595.595 0 00.118-.17 1.29 1.29 0 00.117-.584v-.411h.891v1.165h.167v.5h-.216v-.294h-.94v.294h-.215zm.313-.5h.676v-.96h-.46v.206c0 .228-.036.422-.108.584a.7.7 0 01-.108.17zm1.302.206V45.25h.97v.206h-.755v.352h.598v.206h-.597v.401h.773v.206h-.989zm1.528 0v-1.165h-.41v-.206h1.037v.206h-.411v1.165h-.216zm.57 0l.548-1.371h.236l.548 1.371h-.225l-.137-.352h-.608l-.137.352h-.225zm.44-.548h.451l-.225-.568-.225.568zm.902.538v-.196a.282.282 0 00.108.02.15.15 0 00.092-.03.281.281 0 00.076-.109.817.817 0 00.057-.237c.013-.107.02-.24.02-.398v-.411h.93v1.371h-.215v-1.165h-.5v.205a3.4 3.4 0 01-.021.41c-.014.116-.032.21-.057.282a.536.536 0 01-.09.174.315.315 0 01-.116.09.37.37 0 01-.137.024.366.366 0 01-.106-.014l-.04-.016zm1.675.01V45.25h.215v1.009l.754-1.009h.196v1.371h-.215v-1.009l-.754 1.01h-.196z" fill="#161616"/><path fill-rule="evenodd" clip-rule="evenodd" d="M45.5.5C26.862.5 11.75 15.612 11.75 34.25c0 18.638 33.75 56.25 33.75 56.25s33.75-37.612 33.75-56.25C79.25 15.612 64.138.5 45.5.5zm0 56.25a22.5 22.5 0 110-45 22.5 22.5 0 010 45z" fill="#3B7DEF"/></svg>