<svg width="1161" height="1185" fill="none" xmlns="http://www.w3.org/2000/svg"><path d="M656.508 470.9v211.325h306.098c-.82 10.732-7.385 9.08-8.206 10.731-21.337 79.247-68.934 149.414-133.764 199.769-65.651 50.354-145.254 76.77-227.318 76.77-174.796 0-321.69-120.521-363.543-283.142H11.485C56.62 968.669 299.53 1184.95 594.139 1184.95c330.718 0 590.861-242.696 590.861-567.113 0-86.676-18.87-146.937-18.87-146.937H656.508zM229.779 229.85H0v238.566h229.779V229.85zm631.892 102.363h262.609c-48.42-99.884-123.92-183.258-218.294-241.868C812.433 31.735 704.108.367 593.322.367c-147.716 0-297.072-.826-363.544 0l-.82 228.66h363.543c122.275-.826 201.057 32.194 269.17 103.186z" fill="#9A95F1"/></svg>