<svg width="1161" height="1184" fill="none" xmlns="http://www.w3.org/2000/svg"><path d="M656.508 470.524V681.68h306.099c-.821 10.723-7.386 9.073-8.207 10.723-21.336 79.183-68.934 149.294-133.764 199.608-65.651 50.315-145.253 76.709-227.317 76.709-174.797 0-321.691-120.425-363.544-282.916H11.485C56.62 967.895 299.53 1184 594.14 1184 924.857 1184 1185 941.501 1185 617.343c0-86.606-18.87-146.819-18.87-146.819H656.508zM229.779 229.666H0v238.375h229.779V229.666zm631.892 102.281h262.609c-48.42-99.804-123.92-183.111-218.294-241.674C812.433 31.71 704.108.367 593.322.367c-147.715 0-297.072-.825-363.544 0l-.82 228.477h363.543c122.276-.825 201.057 32.168 269.17 103.103z" fill="#9A95F1"/></svg>