<svg width="76" height="76" fill="none" xmlns="http://www.w3.org/2000/svg"><path d="M41.555 29.806v13.376H60.93c-.052.68-.467.575-.52.68-1.35 5.015-4.362 9.457-8.466 12.644-4.156 3.187-9.194 4.86-14.388 4.86-11.064 0-20.362-7.63-23.011-17.923H.727c2.856 17.87 18.232 31.56 36.88 31.56 20.933 0 37.399-15.362 37.399-35.897 0-5.486-1.195-9.3-1.195-9.3H41.555zM14.544 14.548H0v15.1h14.544v-15.1zm39.996 6.479h16.623c-3.065-6.322-7.844-11.6-13.817-15.309A37.285 37.285 0 0037.556.023c-9.35 0-18.804-.053-23.012 0l-.052 14.473h23.011c7.74-.052 12.726 2.038 17.038 6.531z" fill="#111"/></svg>