<svg width="138" height="19" fill="none" xmlns="http://www.w3.org/2000/svg"><path d="M39.177 1.237H45.3l4.937 13.056 4.895-13.056h5.908v17.407h-3.925V5.334l-5.111 13.31H47.97l-5.112-13.23v13.23H39.19V1.237h-.014zm47.489 0h13.501v17.407h-4.181V4.902h-5.503c-.04 2.439-.108 5.726-.176 7.558-.148 4.568-1.483 6.184-5.395 6.184h-1.874V14.98h1.038c1.767 0 2.334-.795 2.455-3.274.094-2.668.135-7.95.135-10.469zm34.851 0h15.874v3.665h-5.867v13.742h-4.14V4.902h-5.867V1.237zM28.36.873h-1.497c-3.587 0-6.312 2.183-6.932 5.43l3.817.606c.526-1.55 1.726-2.6 3.237-2.667.283-.014.58-.014.863 0 2.252.08 3.277 1.158 3.277 3.826-4.275 0-7.188-.202-9.346 1.212-1.754 1.16-2.509 2.44-2.509 4.46 0 2.937 2.28 5.254 5.961 5.254h.513c2.603 0 4.707-1.01 5.557-2.236v1.873h3.844V8.149C35.158 4.107 32.987.873 28.36.873zM26.014 15.6c-1.632-.04-2.576-.997-2.576-2.182 0-.984.445-1.482 1.038-1.82.62-.363 1.43-.484 2.67-.525 1.201-.04 2.172-.094 4.047-.094 0 2.964-1.875 4.46-4.195 4.621a11.53 11.53 0 01-.984 0zm94.532-4.487v-1.63c0-5.618-3.534-8.515-8.093-8.515h-.89c-4.909 0-8.038 3.341-8.2 8.057a22.68 22.68 0 000 1.926c.108 4.69 3.412 7.855 7.809 7.977.809.026.702.026 1.457 0 3.83-.108 6.73-2.318 7.593-5.201l-3.709-.647c-.903 1.806-2.63 2.506-4.019 2.574-.31.013-.62.013-.944 0-2.172-.095-4.1-1.779-4.1-4.244v-.27l13.096-.027zm-9.05-6.871a6.675 6.675 0 011.038 0c1.821.094 3.736 1.28 3.925 3.624h-8.969c.202-2.102 1.888-3.503 4.006-3.624zM81.891 8.405C81.797 4.188 78.398.968 73.907.968h-1.632c-4.491 0-7.89 3.234-7.985 7.464a56.736 56.736 0 000 3.031c.095 4.231 3.494 7.465 7.985 7.465h1.632c4.491 0 7.89-3.22 7.984-7.465a115.48 115.48 0 000-3.058zm-4.113 2.83c-.054 2.465-1.835 4.136-4.249 4.257a4.902 4.902 0 01-.89 0c-2.428-.121-4.194-1.792-4.248-4.258a42.619 42.619 0 010-2.627c.054-2.438 1.82-4.109 4.248-4.23a4.9 4.9 0 01.89 0c2.415.121 4.208 1.792 4.249 4.257.027 1.024.027 1.59 0 2.6zM12.796 12.5c-.486 1.617-1.78 2.722-3.534 2.965a4.89 4.89 0 01-1.402 0c-2.172-.297-3.696-1.927-3.75-4.217a42.665 42.665 0 010-2.628c.054-2.303 1.66-3.988 3.871-4.23.364-.04.715-.04 1.08 0 1.86.202 3.25 1.32 3.762 3.004l4.046-.781C15.992 3.313 13 .968 9.168.968h-1.16C3.503.968.105 4.188.01 8.418c-.013 1.173-.013 1.86 0 3.032.095 4.23 3.493 7.464 7.985 7.464h1.16c3.91 0 6.932-2.439 7.728-5.86l-4.087-.553z" fill="#111"/></svg>