<svg width="140" height="86" fill="none" xmlns="http://www.w3.org/2000/svg"><path fill-rule="evenodd" clip-rule="evenodd" d="M137.42 72.811h-1.637a.664.664 0 01-.419-.14c-.12-.094-.179-.249-.179-.463v-2.975a.7.7 0 01.13-.422c.085-.121.242-.182.468-.182h1.637v4.182zm-1.637-5.73c-.386 0-.714.058-.988.172a1.704 1.704 0 00-.658.462 1.88 1.88 0 00-.369.683 2.87 2.87 0 00-.12.835v2.975c0 .603.126 1.066.379 1.388.253.321.572.542.957.663l-1.536 6.775h1.577l1.517-6.675h.878v6.675h1.536V67.082h-3.173zm-5.768 4.444h-2.376v-4.443h-1.536v13.952h1.536v-7.961h2.376v7.961h1.536V67.082h-1.536v4.443zm-7.328 2.935c0 .228-.057.385-.17.472a.685.685 0 01-.429.13h-1.418V68.63h1.418c.225 0 .381.061.47.182a.71.71 0 01.129.422v5.227zm1.556-5.227a2.87 2.87 0 00-.12-.835 1.802 1.802 0 00-.38-.683 1.798 1.798 0 00-.668-.462c-.272-.114-.603-.171-.987-.171h-2.955v13.952h1.537v-4.423h1.418a2.8 2.8 0 00.828-.12c.26-.081.489-.205.689-.372.198-.168.355-.39.467-.664.114-.275.171-.606.171-.995v-5.227zm-10.369-.604h.518l.958 8.324h-2.414l.938-8.324zm3.492 12.405l-1.596-13.952h-3.273l-1.576 13.952h1.536l.319-2.674h2.734l.299 2.674h1.557zm-13.773-13.952v13.952h1.536v-8.081h1.297l1.716 8.081h1.577l-1.856-8.725 1.737-5.227h-1.636l-1.518 4.563h-1.317v-4.563h-1.536zm-6.432 0v13.952h4.61v-1.548h-3.073v-6.413h2.314v-1.569h-2.314V68.63h3.073v-1.547h-4.61zm-7.258 0v13.952h1.537V68.63h2.195v12.405h1.536V67.082h-5.268zM14.64 44.939c-2.685 9.066-4.947 17.605-4.59 19.584 0 0 9.628-3.786 12.943-23.129-3.134.572-6.02 2.019-8.353 3.545zm92.02-31.617l-4.487 2.247-2.459-1.48 4.795-4.76C62.012 11.6 35.126 20.39 20.114 27.302a927.223 927.223 0 00-3.804 12.096c3.657-1.666 7.33-2.748 7.33-2.748l7.177 4.937s-4.355 20.137-18.033 29.002l-6.176-1.292s-.661-14.16 5.494-37.914c-5.037 2.853-7.332 4.8-7.332 4.8L.322 33.156a214.746 214.746 0 0113.64-8.519c.81-2.76 1.704-5.625 2.698-8.595l5.701 4.04C71.459-5.099 110.03.538 110.03.538l-3.37 12.783zm25.297 17.155c-1.225 6.843-8.508 13.44-8.508 13.44.551-6.289 8.508-13.44 8.508-13.44zm-52.121 5.468c-1.224 6.843-8.507 13.44-8.507 13.44.55-6.288 8.507-13.44 8.507-13.44zM38.86 60.865c-3.119 9.888-7.093 15.815-9.499 18.757.006-2.813 1.203-9.115 9.499-18.757zm98.788-23.017l-4.651 5.638s1.775-7.954 3.427-9.927l-1.774-1.233s.918-3.02.49-4.562l-2.571-1.788s-1.163-.678-1.837 0c0 0-7.633 4.604-10.511 14.342-2.575 4.378-4.595 5.946-4.595 5.946-1.163-.925-1.897-8.94-1.897-8.94l-1.714.308 4.162-6.474c-.245.37-.49 4.44-.49 4.44l2.939 2.157c-.368-3.637 5.874-14.982 5.874-14.982l-3.06-2.651c-1.714 1.541-12.607 19.606-12.607 19.606l3.733-11.16-3.244-2.527-5.315 14.4c-1.526 3.286-4.862 6.008-4.862 6.008l4.101-12.023-3.244-2.404-2.02 6.966-4.492.647 3.085-8.538-3.49-2.652-4.265 11.593-7.944 8.916s1.775-7.953 3.428-9.926l-1.775-1.233s.917-3.021.49-4.563l-2.57-1.788s-1.164-.678-1.837 0c0 0-6.195 3.733-9.528 11.588-2.255 4.878-8.447 9.366-8.447 9.366-1.837-13.687 5.538-19.884 5.538-19.884 1.041 2.405-2.172 8.263-2.172 8.263h1.805c2.969-3.3 4.927-9.403 4.927-9.403l-4.713-2.93c-4.21 3.012-6.724 9.484-7.821 12.953.456-3.634.355-6.2.355-6.2l-3.703-2.683c-3.121 2.282-4.987 8.447-4.987 8.447l2.172 1.388c1.163-3.484 3.794-5.18 3.794-5.18.093 11.129-6.058 17.202-6.058 17.202l-.215-5.487s-1.742 1.164-4.322 3.221c1.088-5.476 1.519-9.241 1.519-9.241l-3.868-2.735s-2.97 10.583-8.256 14.319c.05-4.129 3.85-13.702 3.85-13.702l-3.795-2.898c-5.814 14.056-4.223 21.21-4.223 21.21l3.244 1.849s3.913-4.433 7.46-9.039a94 94 0 01-1.063 4.64c-5.152 4.759-11.1 11.373-14.231 18.764 0 0-1.856 3.56 1.35 6.648l.119.106L31.933 86c6.617-8.12 10.525-21.165 12.652-30.787l1.777-1.717.351 4.143 3.305 2.404c3.914-3.684 6.04-8.743 7.195-13.334-.602 7.186.792 9.204.792 9.204l2.846 1.85a37.093 37.093 0 006.537-8.858 26.854 26.854 0 00-.343 3.255l4.161 3.33s4.957-4.563 6.794-8.51c0 0-.55 2.096-.122 4.131l2.938 2.342 5.54-6.72-1.777 4.832 3.49 3.082 4.042-11.195 4.463-.642-2.264 7.151 3.702 2.59c.753-.559 1.629-1.543 2.527-2.715l-1.07 2.9 3.794 2.837 6.793-14.243c-.489 1.85 2.204 9.618 2.204 9.618l3.244 2.22c.728-.815 2.221-3.616 3.662-6.495l-.001.018 4.162 3.33s4.958-4.563 6.793-8.509c0 0-.55 2.096-.122 4.13l2.938 2.343 6.242-8.137-1.53-2.001z" fill="#111"/><path fill-rule="evenodd" clip-rule="evenodd" d="M139.178 55.027c-29.704-1.823-76.413 9.059-94.684 15.224-1.18 3.273-2.552 6.505-4.146 9.483 37.89-18.176 98.83-24.707 98.83-24.707z" fill="#111"/></svg>