<svg width="136" height="86" fill="none" xmlns="http://www.w3.org/2000/svg"><path d="M35.957 55.399v4.572s0 1.407-1.232 1.759c-1.233.352-1.76.176-1.585.528h6.514c.352-.352-.176-.352-1.584-.528-.88-.176-1.057-1.231-1.057-1.759V55.4c7.395-1.407 5.81-8.442 2.993-13.19h-7.218c-2.64 4.748-4.225 11.607 3.17 13.19zm73.239 2.462v-5.804c0-2.286-.528-8.441 1.761-9.672 1.232-.528 1.76-1.76 1.76-3.342v-6.507l-.176-.176v-1.055c0-.176 0 0 .176-.176v-.352c0-.527.881-.527 1.585-.527s1.584 0 1.584.527v.352c.177.176.177 0 .177.176v8.266c.176 1.407.704 2.286 1.76 2.814 2.289 1.055 1.761 7.386 1.761 9.672v5.804h15.669c-1.761 0-5.81-1.055-5.986-4.22l-.881-29.371c0-3.166 2.641-4.748 4.578-4.748h-22.007l-3.521 7.914h-3.521l-3.521-7.915H78.211c1.936 0 4.577 1.583 4.577 4.749l-.88 29.37c0 3.166-4.226 4.221-5.986 4.221H91.59v-5.804c0-2.286-.528-8.441 1.76-9.672 1.233-.528 1.585-1.407 1.76-2.814v-8.266c0-.176 0 0 .177-.176v-.352c0-.527.88-.527 1.585-.527.704 0 1.584 0 1.584.527v.352c.176.176.176 0 .176.176v1.055c0 .176 0 .176-.176.176v6.507c.176 1.583.528 2.638 1.761 3.342 2.288 1.055 1.76 7.386 1.76 9.672v5.804h7.218z" fill="#111"/><path d="M37.894 25.853a30.673 30.673 0 00-4.578-3.342l3.521-10.904 1.233 4.045 4.577 15.125c-1.056-1.407-2.64-3.166-4.753-4.924zm28.169 20.225C60.077 27.788 52.683 5.1 52.683 3.869 52.33 1.583 54.618.352 55.851 0H27.859c1.232.176 4.225 1.055 4.049 3.87 0 1.23-1.056 3.868-1.409 4.923l-3.52 9.85c-2.817-1.76-6.162-3.167-9.86-4.046-5.457-1.23-11.091-.703-14.964 4.749C1.098 20.928.394 22.863.218 24.974v1.934c.352 5.452 4.577 11.08 13.38 11.783l.176-.527c-2.112 0-4.401-.528-6.514-2.11-4.753-3.342-5.986-9.674-2.817-14.07 2.817-3.694 7.747-4.925 12.148-2.99 2.817.88 5.81 2.638 8.627 4.397l-7.57 22.511c-1.585 4.22-3.346 8.266-7.395 10.376-.704.352-3.697 1.407-3.697 1.407h24.472c-2.289-.176-7.395-2.11-6.514-6.331.352-1.935.88-4.573 1.584-6.507l5.81-17.939c.704.352 1.408.88 2.113 1.407 1.408.88 2.64 2.11 4.049 3.341 5.634 5.1 11.62 12.839 10.915 19.17-.352 3.694-4.577 6.683-7.218 6.86h34.33s-2.288-.88-3.168-1.232c-4.05-1.583-5.634-6.507-6.866-10.376z" fill="#111"/><path d="M5.676 23.566c-2.113 4.045-.528 9.497 3.52 11.96 1.761 1.055 3.698 1.406 5.283 1.23l1.584-6.507c-7.394.352-9.86-5.451-7.922-8.617 1.408-2.287 4.049-2.462 6.866-1.759-3.521-1.231-7.57.176-9.331 3.693zm129.401 40.099H6.556v1.23h128.521v-1.23z" fill="#111"/><path d="M135.077 63.665H6.556v1.23h128.521v-1.23z" stroke="#111" stroke-width=".291" stroke-miterlimit="22.926"/><path d="M15.007 76.327a.378.378 0 00-.352-.352c-.176-.175-.352-.175-.528-.175h-1.233v6.683c0 .879 0 1.406.176 1.758.176.528.704.704 1.232.704v.527H7.437v-.527c.88 0 1.233-.528 1.233-1.759v-7.387H7.436v-.527c.529 0 .88-.176 1.057-.528.176-.176.352-.703.352-1.407 0-.703.176-1.055.352-1.407.176-.527.528-.879 1.232-1.23.528-.353 1.057-.528 1.76-.704.529-.176 1.233-.176 1.938-.176 1.056 0 1.936.176 2.992.352l-.88 3.165-.352-.175v-.352c0-.352-.176-.88-.352-1.231-.176-.352-.528-.528-1.056-.528-.176 0-.352 0-.529.176l-.528.527c-.176.176-.176.352-.352.528v1.935h2.113c.176 0 .528-.176.704-.352l-.88 2.462zM18 84.593c-.704-.528-1.233-1.055-1.585-1.759-.352-.703-.528-1.758-.528-2.638 0-1.934.704-3.341 2.113-4.397 1.232-1.055 2.817-1.582 4.753-1.582 1.937 0 3.345.527 4.578 1.407 1.232 1.055 1.936 2.462 1.936 4.396 0 1.76-.704 3.166-2.112 4.221-1.233.88-2.817 1.407-4.578 1.407-.88 0-1.584 0-2.465-.352-.88-.351-1.408-.351-2.112-.703zm6.338-1.759c.176-.352.176-.703.352-1.23.176-.528.176-.88.176-1.232 0-.528 0-1.055-.176-1.583-.176-.527-.176-1.055-.352-1.407-.176-.351-.352-.703-.704-.879-.353-.528-.705-.704-1.057-.704-.704 0-1.408.528-1.76 1.232-.177.703-.352 1.406-.352 2.286 0 1.055.175 1.934.528 2.814.352 1.23 1.056 1.758 1.936 1.758.352 0 .705-.175.88-.351a2.43 2.43 0 00.529-.704zm8.274 1.759c-.704-.528-1.232-1.055-1.584-1.759-.352-.88-.528-1.583-.528-2.462 0-1.934.704-3.341 2.112-4.397 1.233-1.055 2.817-1.582 4.754-1.582 1.936 0 3.345.527 4.577 1.406 1.233 1.056 1.937 2.463 1.937 4.397 0 1.759-.704 3.166-1.937 4.221-1.232.88-2.817 1.407-4.577 1.407-.88 0-1.585 0-2.465-.352-.88-.175-1.585-.527-2.289-.879zm6.338-1.759c.176-.352.176-.703.352-1.23 0-.528.176-.88.176-1.232 0-.528 0-1.055-.176-1.583 0-.527-.176-1.055-.352-1.407-.176-.351-.352-.703-.704-.879-.352-.352-.704-.352-1.056-.352-.88 0-1.409.528-1.76 1.231-.177.704-.353 1.407-.353 2.287a7.29 7.29 0 00.528 2.814c.352 1.23 1.057 1.758 1.937 1.758.352 0 .704-.176.88-.352.176-.527.352-.703.528-1.055zm14.965 2.638h-2.113c-1.056 0-1.76 0-2.464-.175-.88-.176-1.585-.352-2.29-.88-.703-.528-1.232-1.055-1.584-1.759-.352-.703-.528-1.582-.528-2.462 0-1.934.704-3.517 1.937-4.572 1.232-1.056 2.817-1.407 4.93-1.407h1.584v-1.055c0-.704 0-1.232-.176-1.408-.176-.351-.704-.527-1.233-.527v-.528l5.634-.352V83.01c0 1.231.352 1.759 1.233 1.759v.527l-4.93.176zm-.88-9.672c-.528 0-.88.175-1.409.351-.528.352-.88.704-1.056 1.056-.528.879-.88 1.758-.88 2.813 0 1.056.176 1.76.704 2.638.528.88 1.232 1.407 2.113 1.407.528 0 .88-.175 1.056-.527.176-.176.176-.528.176-1.231v-6.508h-.704zm42.077 3.869l.88-3.166c0-.352.176-.528.176-.88 0-.175 0-.351-.176-.527-.176 0-.352-.176-.528-.176v-.528h3.521v.528c-.176 0-.352.176-.528.176a.378.378 0 00-.352.352 8.566 8.566 0 00-.528 1.23c0 .177-.176.704-.528 1.408l-1.233 4.397s0 .351-.176.879-.176.703-.176.88c0 .351.176.527.352.527v.527H91.24v-.527a.378.378 0 00.352-.352v-.352l-.176-.351-1.233-3.694-1.408 3.87v.526c0 .176.176.352.352.352v.527h-4.753v-.527c.176 0 .352-.176.352-.528v-.527c0-.176 0-.352-.176-.352l-1.409-5.628c-.352-1.055-.528-1.583-.528-1.759-.352-.703-.704-1.055-1.408-1.055v-.528h6.69v.528c-.528 0-.88.352-.88.88 0 .351 0 .703.175 1.055l1.057 5.1.528-1.935 2.113-5.627h1.584l2.289 7.562.352-2.286zm4.225-5.1l5.282-.352v8.793c0 1.231.352 1.759 1.232 1.759v.527h-6.514v-.527c.881 0 1.233-.528 1.233-1.759v-6.155c0-1.231-.352-1.759-1.233-1.759v-.528zm1.057-3.518c0-.528.176-1.055.704-1.407.528-.352 1.056-.528 1.584-.528.705 0 1.233.176 1.585.528.352.352.528.88.528 1.407 0 .528-.176 1.055-.704 1.407-.528.352-1.056.528-1.585.528-.528 0-1.232-.176-1.584-.528-.352-.176-.528-.704-.528-1.407zm7.57 5.804c0-1.231-.352-1.759-1.232-1.759v-.528l4.753-.351c.176.351.352.527.352 1.055.176.527.176.88.176 1.055.529-.703 1.233-1.231 1.937-1.583.704-.352 1.584-.703 2.465-.703 1.056 0 1.936.352 2.288 1.055.353.528.529 1.583.529 2.99v4.924c0 1.231.352 1.759 1.232 1.759v.527h-6.69v-.527c.88 0 1.232-.528 1.232-1.759v-4.573c0-.527 0-1.055-.176-1.23-.176-.528-.528-.704-.88-.704s-.704.176-1.056.352c-.352.176-.529.527-.705.88-.176.35-.352.703-.352 1.23 0 .528-.176.88-.176 1.231v2.814c0 1.231.528 1.759 1.409 1.759v.527h-6.69v-.527c.88 0 1.232-.528 1.232-1.759v-6.155h.352zm18.134 3.341c.176 1.055.528 1.935 1.056 2.462.528.704 1.409 1.056 2.465 1.056.88 0 1.584-.176 2.289-.704.704-.528 1.232-1.055 1.584-1.934l.528.175-1.584 4.397c-.176 0-.176-.176-.176-.176-.176 0-.352-.175-.528-.175h-.529c-.528 0-.88.175-1.408.175h-1.408c-.881 0-1.761-.175-2.465-.351s-1.585-.528-2.113-1.056c-.704-.527-1.232-1.23-1.76-1.934-.353-.704-.529-1.583-.529-2.638 0-1.759.705-3.166 2.113-4.221 1.232-.88 2.817-1.407 4.577-1.407 1.585 0 2.817.352 3.874 1.055 1.056.88 1.76 1.935 2.112 3.342l-8.098 1.934zm3.521-2.11v-.352c0-.527-.176-.88-.528-1.407-.352-.528-.704-.528-1.233-.528-.704 0-1.232.352-1.584 1.056-.352.527-.352 1.23-.352 1.934l3.697-.703zM66.415 77.03c-.528-.704-.88-1.232-1.056-1.76-.176-.527-.352-1.054-.352-1.582 0-1.407.352-2.286 1.232-2.99.88-.703 1.76-1.055 3.169-1.055 1.232 0 2.113.352 2.817 1.055.704.704 1.056 1.583 1.056 2.638 0 .704-.176 1.407-.528 1.935-.352.527-.704 1.055-1.409 1.583l-1.056.703 2.993 3.342c.352-.352.528-.88.528-1.407.176-.528.176-1.055.176-1.583h2.465c0 1.055-.176 1.934-.352 2.814-.176.88-.704 1.583-1.232 2.286l2.112 2.638h-3.52l-.881-.88c-.528.353-1.233.704-1.937.88-.704.176-1.408.352-2.112.352-1.585 0-2.817-.352-3.698-1.231-.88-.88-1.408-1.935-1.408-3.166 0-.88.176-1.583.704-2.286.704-1.055 1.409-1.759 2.289-2.286zm2.64 6.155c.353 0 .705 0 1.233-.176.352-.176.704-.176 1.056-.528l-3.168-3.693c-.353.352-.705.704-.88 1.055-.177.352-.177.704-.177 1.056 0 .703.176 1.23.528 1.582.176.528.705.704 1.409.704zm-1.232-9.673c0 .352 0 .528.177.88.175.351.352.703.704 1.055l.88-.528c.352-.352.704-.528.88-.88.176-.35.176-.527.176-.879 0-.351-.176-.703-.352-.879-.176-.176-.528-.352-1.056-.352s-.704.176-1.056.528c-.177.176-.353.528-.353 1.055z" fill="#111"/></svg>