<svg width="99" height="86" fill="none" xmlns="http://www.w3.org/2000/svg"><path d="M2.94 16.142s-3.051 13.541 5.053 17.62c8.104 4.08 21.115 1.504 23.313-1.67 2.198-3.172 2.702-5.363 2.702-5.363V16.143" fill="#111"/><path d="M33.347 16.142s-3.05 13.541 5.053 17.62c8.104 4.08 21.117 1.504 23.313-1.67 2.196-3.172 2.7-5.363 2.7-5.363V16.143" fill="#111"/><path d="M64.431 16.142s-3.05 13.541 5.053 17.62c8.104 4.08 21.117 1.504 23.313-1.67C94.993 28.92 95.5 26.73 95.5 26.73V16.143" fill="#111"/><path d="M97.3 16.249a1.66 1.66 0 00-.614-1.134 1.696 1.696 0 00-1.247-.367 1.706 1.706 0 00-1.14.617 1.664 1.664 0 00-.36 1.236c0 .023.005.046.008.069.424 3.296.432 6.036.02 8.145-.42 2.16-1.269 4.03-2.524 5.555l-.086.112c-1.9 2.242-4.606 3.602-7.842 3.934-.514.054-3.09.183-3.626.183h-.57c-.634 0-2.72-.14-3.32-.213-5.422-.659-9.135-4.149-10.185-9.571C64.23 16.677 69.3 2.339 69.353 2.192A1.655 1.655 0 0069.256.94a1.683 1.683 0 00-.951-.832 1.707 1.707 0 00-1.269.058c-.399.182-.71.51-.868.916-.223.623-5.427 15.336-3.672 24.365.094.484.21.954.34 1.417-1.553 4.29-5.124 7.065-9.894 7.554-.518.054-3.091.183-3.626.183h-.57c-.635 0-2.72-.14-3.322-.213-5.42-.659-9.133-4.149-10.185-9.571-1.583-8.139 3.487-22.476 3.539-22.623a1.653 1.653 0 00-.097-1.253A1.683 1.683 0 0037.73.11a1.706 1.706 0 00-1.268.058c-.4.182-.711.51-.87.916-.222.622-5.426 15.336-3.67 24.365.095.483.211.954.34 1.416-1.554 4.29-5.126 7.066-9.894 7.555-.518.053-3.092.182-3.625.182h-.571c-.635 0-2.72-.139-3.32-.212-5.424-.66-9.136-4.15-10.186-9.572-1.6-8.141 3.467-22.48 3.52-22.623a1.654 1.654 0 00-.088-1.26 1.683 1.683 0 00-.955-.84 1.707 1.707 0 00-1.276.062c-.4.185-.712.518-.867.928-.222.618-5.426 15.331-3.67 24.36C2.66 32.286 7.554 36.869 14.421 37.7c.46.057 1.533.137 2.454.188V51.39a1.655 1.655 0 00.466 1.195 1.691 1.691 0 001.185.518 1.707 1.707 0 001.208-.464 1.671 1.671 0 00.52-1.174V37.89a66.632 66.632 0 002.45-.15c4.982-.512 8.935-2.965 11.313-6.817 2.326 3.756 6.167 6.194 10.984 6.78.46.057 1.534.138 2.454.189V51.39a1.655 1.655 0 00.494 1.182 1.69 1.69 0 001.195.489 1.705 1.705 0 001.194-.49 1.668 1.668 0 00.495-1.18V37.888a66.5 66.5 0 002.45-.15c4.981-.512 8.942-2.958 11.32-6.807 2.326 3.756 6.165 6.184 10.978 6.77.461.057 1.534.138 2.453.189v13.498c0 .443.178.868.494 1.182a1.699 1.699 0 002.39 0c.316-.314.494-.739.494-1.182v-13.5c.97-.046 2.072-.111 2.452-.15 4.151-.427 7.653-2.212 10.127-5.166l.1-.131c1.595-1.952 2.67-4.305 3.194-6.995.478-2.457.484-5.55.015-9.198zm-3.912 54.343h-3.792v2.998h3.821c1.31 0 1.634-.749 1.634-1.503 0-.747-.409-1.496-1.662-1.496zm.38 6.285h-8.019V62.031H97.7v3.257h-8.103v2.247h3.907s2.4.03 3.572.694c1.17.664 1.792 1.894 1.792 4.41 0 2.91-2.537 4.239-5.1 4.239v-.001zM8.454 70.592H4.662v2.998h3.819c1.311 0 1.635-.749 1.635-1.503 0-.747-.41-1.496-1.662-1.496zm-3.792-3.057H8.57c.789 0 1.137-.605 1.137-1.122 0-.517-.321-1.125-1.165-1.125h-3.88v2.247zm4.17 9.343H.815V62.03h7.99c2.388 0 4.516 1.465 4.516 4.006 0 1.355-.551 2.303-1.397 2.94.962.518 2.01 1.585 2.01 3.662-.001 2.91-2.538 4.239-5.102 4.239zm7.774-14.847h3.787v9.455l5.802-9.455h4.02v14.846H26.43v-9.458l-5.803 9.458h-4.02V62.03zm20.44 14.847h-3.842V62.03h3.842v5.16h5.92v-5.16h3.843v14.847h-3.843V70.56h-5.92v6.317zm27.376-14.847v14.846h-3.847V65.403h-4.372l-.643 6.284c-.38 3.632-2.188 5.246-5.889 5.246v-3.314c1.312-.087 2.013-.635 2.159-2.163l.99-9.425h11.602zm10.628 3.198c-2.13 0-3.847 1.845-3.847 4.266 0 2.367 1.716 4.181 3.846 4.181s3.845-1.874 3.845-4.181c0-2.362-1.718-4.266-3.845-4.266zm7.696 11.65h-3.678v-1.59c-1.163 1.21-2.769 1.903-4.6 1.903-3.907 0-7.145-3.344-7.145-7.723 0-4.414 3.238-7.756 7.145-7.756 1.832 0 3.438.69 4.6 1.905v-1.589h3.678v14.85zM4.802 85.808a3.296 3.296 0 01-.446.115 4.686 4.686 0 01-.626.073 3.805 3.805 0 01-.152.004c-.666 0-1.243-.196-1.73-.586-.486-.39-.73-.974-.73-1.75 0-.733.236-1.316.707-1.748.47-.432 1.114-.648 1.93-.648a3.593 3.593 0 01.797.086c.04.013.082.026.125.036.043.01.084.023.125.037l-.04.794a2.235 2.235 0 00-.46-.132 2.796 2.796 0 00-.48-.04c-.482 0-.884.138-1.207.414-.322.276-.483.672-.483 1.188 0 .53.142.912.426 1.148a1.762 1.762 0 001.197.427 2.302 2.302 0 00.885-.165.548.548 0 00.053-.017.23.23 0 00.048-.023l.061.787zm1.886-4.488l.94 1.973.202.49h.02l.203-.497.899-1.965h.946l-1.892 3.945c-.14.29-.304.486-.494.585-.193.1-.41.152-.628.15-.112 0-.224-.01-.335-.03a2.64 2.64 0 01-.26-.064 1.068 1.068 0 00-.064-.023.422.422 0 01-.058-.023l.108-.701a1.43 1.43 0 00.203.079l.098.013a.894.894 0 00.402-.043c.095-.033.174-.12.237-.261l.135-.311-1.735-3.316h1.073zm8.016 0v4.634h-.96v-3.872h-1.872v3.872h-.96V81.32h3.791zm4.243 0v.822h-1.865v1.045h1.697v.761h-1.697v1.184h1.865v.82h-2.825v-4.631h2.825zm2.683 0c.515 0 .899.088 1.153.262.254.175.43.365.53.573.052.106.088.218.109.334.016.093.025.187.026.281v.073c-.018.344-.16.658-.43.943-.267.285-.672.427-1.212.427h-.615v1.74h-.96v-4.632h1.4zm0 2.165c.266 0 .467-.074.602-.222a.745.745 0 00.203-.52.731.731 0 00-.18-.48c-.119-.142-.327-.214-.625-.214h-.439v1.436h.44zm5.367 2.469l-1.15-3.31-.215-.661h-.021l.014.715v3.256h-.96V81.32h1.622l.946 2.694.21.82h.02l.21-.82.945-2.694h1.622v4.633h-.96v-3.256l.014-.715h-.02l-.217.661-1.149 3.31h-.911zm7.273-4.634l1.878 4.634h-1.081l-.4-1.04h-1.952l-.399 1.04h-1.027l1.885-4.633h1.095zm.114 2.827l-.696-1.894h-.014l-.655 1.894h1.365zm4.211-2.827c.514 0 .898.088 1.152.262.254.175.431.365.532.573.05.106.087.218.107.334.017.093.026.187.027.281v.073c-.018.344-.16.658-.43.943-.267.285-.672.427-1.212.427h-.615v1.74h-.96v-4.632h1.399zm0 2.165c.266 0 .466-.074.601-.222a.746.746 0 00.024-1c-.12-.142-.328-.214-.625-.214h-.44v1.436h.44zm3.994-2.165v1.98h.02l1.71-1.98h1.142l-1.973 2.1 2.095 2.534h-1.216l-1.758-2.303h-.02v2.303h-.96v-4.633h.96zm6.812 0v.822h-1.865v1.045h1.696v.761h-1.696v1.184h1.865v.82h-2.825v-4.631h2.825zm4.603 0v.822h-1.365v3.813h-.96v-3.813h-1.365v-.821h3.69zm4.852 0v1.868h1.92v-1.867h.96v4.633h-.96v-2.006h-1.92v2.006h-.96V81.32h.96zm6.907 0l1.88 4.634H66.56l-.399-1.04H64.21l-.399 1.04h-1.027l1.885-4.633h1.095zm.115 2.827l-.696-1.894h-.014l-.655 1.894h1.365zm6.603-2.827v4.634h-.96v-3.872H69.65v3.872h-.96V81.32h3.792zm2.379 0v2.383l-.02 1.126h.02l.338-.676 1.656-2.832h1.149v4.633h-.96v-2.39l.021-1.117h-.02l-.326.7-1.669 2.806H73.9v-4.632h.961zm7.88 0v.822h-1.365v3.813h-.96v-3.813h-1.366v-.821h3.692zm2.009 0v1.98h.02l1.708-1.98h1.144l-1.974 2.1 2.095 2.534h-1.217l-1.757-2.303h-.02v2.303h-.959v-4.633h.96zm7.788.553c.443.404.665.992.665 1.764s-.222 1.36-.665 1.76c-.444.402-.995.603-1.653.603-.657 0-1.208-.201-1.652-.603-.443-.4-.665-.988-.665-1.76s.222-1.36.665-1.764c.443-.403.994-.604 1.652-.604.659 0 1.21.201 1.653.604zm-1.876.074a1.09 1.09 0 00-.243.063c-.212.08-.405.239-.578.48-.174.24-.26.622-.26 1.148 0 .525.087.908.26 1.148.173.24.366.4.578.48.078.03.16.05.243.063.148.022.298.022.446 0 .084-.012.165-.033.244-.063.211-.08.404-.24.577-.48.174-.24.26-.624.26-1.148 0-.525-.086-.908-.26-1.149-.173-.24-.366-.4-.577-.48a1.092 1.092 0 00-.244-.062 1.51 1.51 0 00-.446 0zm5.346-.627c.08 0 .186.007.314.017.134.012.266.036.395.07.221.064.425.178.595.33.18.16.27.402.27.729 0 .256-.05.457-.151.605a1.14 1.14 0 01-.335.334.96.96 0 01-.149.076c-.05.02-.094.036-.135.05v.013c.267.036.514.159.703.349.194.191.29.444.29.757 0 .074-.005.148-.016.222a1.186 1.186 0 01-.064.241c-.086.212-.26.405-.521.579-.261.174-.68.26-1.257.261h-1.494v-4.632h1.555zm-.596 1.88h.467c.207 0 .362-.034.463-.102a.616.616 0 00.213-.222.412.412 0 00.05-.139.771.771 0 00.01-.112.702.702 0 00-.01-.11.474.474 0 00-.037-.122.54.54 0 00-.216-.238c-.108-.071-.28-.106-.514-.106h-.425V83.2zm0 2.025h.534c.28 0 .49-.06.632-.182a.588.588 0 00.213-.466c0-.186-.046-.322-.139-.41a.782.782 0 00-.307-.185.93.93 0 00-.233-.046 2.946 2.946 0 00-.166-.007h-.533v1.296z" fill="#111"/></svg>