<svg width="139" height="35" fill="none" xmlns="http://www.w3.org/2000/svg"><path d="M91.79 22.33h12.526v2.096H91.791v2.16h12.525v2.095H89.629V18.265h14.687v2.032H91.791v2.033zm16.913 0h12.524v2.096h-12.524v2.16h12.524v2.095h-14.686V18.265h14.686v2.032h-12.524v2.033zm14.75-4.192h10.299c1.654 0 3.179.254 3.942 1.842.827 1.651.636 3.302-.508 4.827.953 1.08 1.081 2.35.953 3.81h-2.098v-1.334c-.063-.825-.572-1.397-1.398-1.46-2.989-.064-6.04 0-9.156 0v2.794h-2.034v-10.48zm1.971 5.589h9.155c.89 0 1.462-.699 1.462-1.715 0-1.08-.508-1.778-1.462-1.778-2.861-.064-5.722 0-8.583 0-.191 0-.509.254-.509.38-.063 1.017-.063 2.033-.063 3.113zM63.18 28.68h-3.56c-2.161 0-3.75-1.523-3.75-3.683v-3.175c0-2.16 1.398-3.62 3.56-3.684 2.543-.064 5.022-.064 7.566 0 2.161.063 3.623 1.588 3.623 3.747v3.176c0 2.032-1.589 3.556-3.623 3.62H63.18zm.128-2.159h3.624c1.017 0 1.59-.571 1.59-1.587v-3.049c0-1.08-.636-1.651-1.654-1.651h-7.184c-1.08 0-1.653.571-1.717 1.651v3.049c0 1.08.573 1.587 1.653 1.65 1.272 0 2.48-.063 3.688-.063zm-26.385-.698v2.794H34.89v-10.48h10.87c1.843 0 3.115.89 3.623 2.35.636 1.78.127 3.685-1.271 4.637-.636.445-1.462.635-2.162.699-2.67.063-5.277 0-7.947 0h-1.08zm.064-2.096h8.71c1.208 0 1.78-.572 1.78-1.778 0-1.207-.572-1.779-1.78-1.779H37.75c-.255 0-.445 0-.763.064v3.493zM11.428 34.778H9.33V.355h2.098v34.423zm-4.323-.953H5.07V3.467h2.035v30.358zm6.549-30.358h2.034v29.405h-2.034V3.468zm59.191 14.671h10.681c2.606 0 4.005 1.397 4.005 4.001v6.478h-2.098v-6.795c0-1.017-.636-1.652-1.653-1.652h-8.265c-.572 0-.7.254-.7.762v7.686h-1.97v-10.48zM17.977 6.579h2.034v24.388h-2.034V6.579zM.81 16.614h1.972v14.353H.81V16.614zm52.961 12.003h-1.97v-10.48h1.97v10.48z" fill="#111"/></svg>