<svg width="87" height="86" fill="none" xmlns="http://www.w3.org/2000/svg"><path d="M86.09 42.874v22.32c0 4.413-.757 8.7-3.407 12.483-3.535 5.044-8.458 7.566-14.517 8.07-2.02.127-4.166.253-6.186.253H20.955c-4.04 0-7.953-.504-11.488-2.648C4.292 80.199 1.262 75.786.38 69.859A45.257 45.257 0 010 63.933V20.806c0-4.16.631-8.322 3.03-11.979C6.185 4.035 10.604 1.135 16.284.504 18.683.126 21.207 0 23.606 0h41.53c4.04 0 8.08.63 11.614 2.774 5.049 3.027 7.952 7.566 8.836 13.367.252 2.017.379 4.161.379 6.179.126 6.809.126 13.745.126 20.554zM17.8 29.003c-6.186 9.836-6.06 26.48 6.185 37.073 11.866 10.34 29.665 9.332 40.395-2.27 10.477-11.222 9.215-26.859 3.787-34.803-2.525 1.765-5.302 2.9-8.205 3.783-.379-1.135-.127-1.766 1.01-2.018 1.262-.378 2.02-1.387 2.524-2.774a20.409 20.409 0 01-1.64-.756v-.505c.252-1.765-.506-3.405-2.02-4.161-1.515-.757-3.156-.505-4.419.63-.252.252-.505.505-.757.63-1.01.38-1.136.883-.631 1.64.126.252.126.63.126.883.252.883.379 1.891.884 2.648.63 1.26 1.893 1.891 3.282 2.144v.756c.252 1.009-.253 1.513-1.263 1.64-1.262.126-2.398.504-3.66.63-1.389.252-2.778.378-4.166.504-.253-1.135-.253-1.891 1.01-2.395 1.262-.379 2.02-1.388 2.398-2.649-.126-.126-.252-.252-.379-.252-1.01-.126-1.262-.756-1.136-1.765.127-2.9-3.156-4.918-5.68-3.405-.884.505-1.767 1.261-2.651 1.892.126.504.505 1.008.505 1.639.126 2.522 1.262 4.287 3.787 5.044.883.252.379 1.009.379 1.513 0 .126-.505.505-.758.505-2.02 0-4.166.126-6.185 0-2.525-.127-5.176-.379-7.7-.505V31.02c.252-.126.378-.126.63-.252 3.283-1.009 5.176-3.278 5.807-6.557.253-1.513.505-3.026.884-4.54-.757-.378-1.767-.882-2.525-1.513-2.272-2.143-5.049-2.774-7.7-1.387-2.65 1.387-3.913 4.035-3.282 7.188.126.504 0 .756-.505 1.009-.757.252-1.388.504-2.272.882.252.505.379.883.505 1.261 1.262 2.144 3.03 3.531 5.554 4.036.253 0 .758.252.758.378.126.757 0 1.64 0 2.522-4.671-1.135-8.963-2.27-12.876-5.044zm34.335-11.601c0-2.144-1.767-3.91-3.913-3.91s-3.913 1.766-3.913 3.91c0 2.143 1.767 3.909 3.913 3.909 2.272 0 3.913-1.765 3.913-3.91z" fill="#111"/><path d="M35.471 55.736c-.126 0-.126.126-.252.126-2.272.252-2.272.252-3.03-1.766-.252-.63-.63-1.008-1.388-1.008h-3.66c-.632 0-1.01.126-1.263.756 0 .126 0 .126-.126.126-.884 2.018-.884 2.018-3.282 1.766.126-.252.252-.505.252-.883 1.641-3.657 3.282-7.188 4.923-10.845.253-.504.758-1.008 1.262-1.135.758-.252 1.01.505 1.263 1.135 1.64 3.531 3.156 7.062 4.797 10.467.252.504.378.882.505 1.26zm-4.67-4.792c-.631-1.387-1.136-2.648-1.894-4.161-.63 1.513-1.262 2.774-1.767 4.16h3.66zm7.826-5.044c-.883.378-1.515.757-2.272 1.135-.379-.63-.631-1.135-1.01-1.892 1.389-.756 2.525-1.387 3.913-2.017.884-.505 1.768.126 1.894 1.135v11.6c-.631 0-1.263.127-1.894 0-.252 0-.505-.504-.505-.882v-7.566c-.126-.504-.126-.882-.126-1.513zm22.975 9.836h-2.399V45.9c-.884.379-1.515.757-2.398 1.009-.379-.63-.631-1.135-1.01-1.765 1.388-.757 2.65-1.514 4.04-2.144.757-.378 1.64.126 1.64 1.009.127 3.909.127 7.818.127 11.727zM53.523 45.27c-2.02-2.901-6.06-3.027-8.206-.253-1.893 2.396-1.893 6.557 0 9.08 2.146 2.9 6.312 2.773 8.332-.253.883-1.26 1.136-2.648 1.136-3.909 0-2.144-.379-3.405-1.262-4.666zm-4.166 8.448c-1.641 0-3.03-1.892-3.03-4.287 0-2.396 1.389-4.288 3.03-4.288 1.64 0 3.03 1.892 3.03 4.288 0 2.396-1.39 4.287-3.03 4.287zM35.85 22.446a1.136 1.136 0 10.001-2.271 1.136 1.136 0 000 2.27zm9.847 5.422a.757.757 0 100-1.514.757.757 0 000 1.514zm10.729-1.639a.757.757 0 10.001-1.514.757.757 0 000 1.514z" fill="#111"/></svg>