<svg width="87" height="87" fill="none" xmlns="http://www.w3.org/2000/svg"><path d="M72.893 86.653H13.965c-.108 0-.216-.108-.432-.108-.54-.108-1.187-.108-1.726-.216C5.547 85.143 1.014 79.753.474 73.823c0-.216-.108-.431-.108-.647V14.094c0-.107.108-.323.108-.43 0-.432.108-.756.108-1.187.648-3.773 2.483-6.792 5.504-9.056C8.353 1.696 10.836.833 13.641.725c.108 0 .324 0 .432-.107h58.712c.108 0 .324.107.432.107.54.108 1.08.108 1.619.216 4.857.863 9.066 4.313 10.685 8.949.647 1.617.863 3.342.863 5.175v57.464c0 1.725-.216 3.342-.863 4.852-1.835 5.067-6.476 8.517-11.764 9.056-.216.108-.54.108-.864.216zm5.289-43.018c-.108-.97-.108-1.94-.216-2.91-.216-2.588-.756-5.176-1.511-7.656C72.03 19.27 59.187 9.243 43.86 8.92c-2.05 0-4.21.108-6.26.432-2.806.43-5.612 1.293-8.202 2.48-3.994 1.832-7.663 4.204-10.793 7.33-3.993 4.097-6.8 8.841-8.526 14.232a28.24 28.24 0 00-1.295 6.145c-.108.863-.216 1.617-.216 2.48v3.558c0 .539.108 1.078.216 1.617.216 1.725.54 3.45.971 5.175 3.67 14.123 15.865 24.69 30.867 25.875 2.267.216 4.533.108 6.8-.108 2.266-.215 4.64-.754 6.799-1.51 14.354-4.743 23.96-18.004 23.96-32.99z" fill="#111"/><path d="M31.45 33.608c-.109.216-.217.432-.217.647l-.647 2.588c-.216.862-.432 1.725-.648 2.695-.216.755-.54 1.51-.971 2.264l-.324.647c-.216.216-.216.216 0 .431a.334.334 0 00.216.108c1.08.54 1.835 1.402 2.374 2.372.756 1.294 1.295 2.803 1.727 4.313.324 1.293.648 2.587 1.08 3.773.107.431.323.97.54 1.402.215.539.647.862 1.294.97.324 0 .648.108.864.323v1.402H30.37c-.108-.216-.108-.431-.216-.647-.324-1.617-.648-3.342-1.08-4.96a220.02 220.02 0 00-.97-3.988c-.216-.647-.432-1.294-.864-1.941-.647-.863-1.403-1.294-2.482-1.294h-.216v8.625c0 .324 0 .647.108.97.108.647.431 1.079 1.079 1.294.324.108.648.216 1.08.324.107 0 .215.108.215.215v1.294c-.324.108-8.634.108-8.958 0v-1.401c.216 0 .432-.108.756-.108.108 0 .323-.108.431-.108.648-.108 1.08-.54 1.188-1.294.108-.539.108-.97.108-1.51V33.286c0-.97-.432-1.725-1.404-2.048-.323-.108-.647-.324-1.079-.432v-1.401c.216-.108 7.879-.108 8.958 0 .108.215.108.97 0 1.51-.216 0-.431.107-.647.215-.216.108-.54.108-.756.215-.54.216-.863.647-.863 1.294-.108 1.078-.108 2.156-.108 3.235v7.006c.863.324 2.05-.107 2.59-.97a8.023 8.023 0 001.187-2.587c.432-1.294.648-2.48.972-3.774.215-1.186.54-2.48.97-3.666.217-.43.433-.862.648-1.293.216-.324.54-.647.864-.97.863-.755 2.482-.755 3.346.646.323.54.54 1.186.647 1.94.108.971 0 1.941-.431 2.912-.108.323-.324.539-.54.862-.648.647-1.403.647-2.05.108-.217-.215-.433-.431-.54-.755-.216-.323-.324-.646-.54-.97-.108-.431-.216-.539-.324-.755zm22.448 23.935v-1.51c.216 0 .432-.108.648-.108.216 0 .324-.107.54-.107.755-.216 1.187-.647 1.187-1.51 0-.539.107-1.186.107-1.725V33.177c0-.216 0-.54-.108-.755-.107-.539-.323-.97-.863-1.186-.324-.215-.755-.323-1.08-.43-.107-.109-.323-.109-.539-.216v-1.51h15.002c.108.324.108 7.655 0 8.086h-.863c-.108-.323-.216-.647-.216-.97a21.09 21.09 0 00-1.295-3.666l-.324-.647c-.324-.647-.863-.97-1.511-.97-1.295-.108-2.59-.108-3.993-.108h-.108c-.108.216-.108 9.596 0 10.135h3.345c.648 0 1.296.107 1.943.323 1.619.539 2.806 1.617 3.562 3.127.54 1.078.755 2.156.863 3.234.216 1.725 0 3.342-.54 4.96-.323.97-.755 1.94-1.51 2.802-1.08 1.294-2.483 2.049-4.21 2.049h-9.929c.108.215 0 .108-.108.108zm6.692-14.447v10.242c0 .323 0 .54.108.862.215 1.294 1.726 2.049 2.914 1.294.54-.323.97-.754 1.187-1.186a5.05 5.05 0 00.647-1.617c.432-1.833.54-3.773.216-5.606a7.509 7.509 0 00-.647-2.049c-.324-.647-.756-1.186-1.296-1.509-1.079-.539-2.05-.647-3.13-.431zM47.638 47.3c.108-.107.108-.215.216-.323.54-1.078.864-2.264 1.08-3.45v-.431c0-.431-.216-.647-.54-.862-.216-.108-.432-.216-.54-.216-.216-.108-.431-.108-.54-.216v-1.078h5.505c.108.324 0 .647 0 .97-.216.108-.432.108-.756.216-.755.108-1.295.54-1.619 1.294-.323.755-.647 1.51-.863 2.156-.324.863-.755 1.617-1.08 2.48 0 .108-.107.215-.107.323-.108.216 0 .324.108.54.431.538.755 1.185 1.187 1.724.216.216.324.432.54.647.647.755 1.619 1.186 2.59 1.294.108 0 .216 0 .324.108v1.078h-5.504c-.216 0-.324-.108-.432-.324-.216-.539-.54-.97-.864-1.509-.108-.108-.108-.216-.216-.323l-.54.539-.97.97c-1.08.97-2.375 1.294-3.778.97-1.08-.215-1.835-.754-2.374-1.617-.54-.862-.864-1.833-.972-2.91-.108-.756 0-1.402.108-2.157.432-2.048 1.511-3.558 3.238-4.636l.108-.108c-.108-.215-.108-.431-.216-.539-.216-.539-.432-.97-.648-1.51-.647-1.509-.863-3.018-.431-4.635.324-1.51 1.187-2.588 2.698-3.019 2.05-.755 4.101.323 4.533 2.48.432 2.156-.108 4.097-1.727 5.606-.755.647-.648.539-.216 1.294.864 1.51 1.727 3.019 2.59 4.636-.107.215 0 .323.108.539zm-6.151-3.773h-.108c0 .108-.108.108-.108.216a5.265 5.265 0 00-.324.755c-.324.862-.432 1.725-.432 2.587 0 .97.108 1.833.432 2.695.216.54.54 1.079 1.08 1.402 1.186.862 2.697.54 3.453-.647a231.113 231.113 0 01-3.993-7.008zm2.374-2.91c.324-.216.54-.54.756-.863.647-1.294.863-2.588.647-3.99-.108-.43-.216-.97-.648-1.293-.54-.54-1.295-.54-1.726 0-.216.216-.324.539-.432.755-.216.539-.216 1.186 0 1.833.216 1.185.755 2.264 1.295 3.342 0 0 .108.107.108.215z" fill="#111"/></svg>