<svg width="665" height="1074" fill="none" xmlns="http://www.w3.org/2000/svg"><path d="M136.508 360.524V571.68h306.098c-.82 10.723-7.385 9.073-8.206 10.723-21.337 79.183-68.934 149.294-133.764 199.608-65.651 50.315-145.254 76.709-227.318 76.709-174.796 0-321.69-120.425-363.543-282.916h-218.29C-463.38 857.895-220.47 1074 74.139 1074 404.857 1074 665 831.501 665 507.343c0-86.607-18.875-146.819-18.875-146.819H136.508zm205.163-138.577h262.605c-48.418-99.804-123.917-183.111-218.29-241.674-93.553-58.563-201.878-89.906-312.664-89.906-147.716 0-297.072-.825-363.544 0l-.82 228.477H72.501c122.275-.825 201.057 32.168 269.17 103.103z" fill="#9A95F1"/></svg>