<svg width="135" height="20" fill="none" xmlns="http://www.w3.org/2000/svg"><path d="M11.134 7.947v3.563h5.192c-.014.181-.126.153-.14.181a6.384 6.384 0 01-2.268 3.368 6.377 6.377 0 01-10.02-3.48H.194c.765 4.76 4.885 8.407 9.881 8.407 5.61 0 10.021-4.092 10.021-9.561 0-1.462-.32-2.478-.32-2.478h-8.643zM3.897 3.883H0v4.022h3.897V3.883zm10.717 1.726h4.453a9.874 9.874 0 00-3.702-4.078A10.034 10.034 0 0010.062.014c-2.505 0-5.038-.014-6.165 0l-.014 3.855h6.166c2.073-.014 3.41.543 4.565 1.74zm38.58-1.865v4.189h3.702V.292h-3.702v3.452zM99.415.278h-3.897V19.68h3.897V.278zm-55.059 0H40.6h.014V19.68h3.743V6.36l8.226 13.32h4.314L44.927.278h-.57zM23.59.292v19.331h12.75v-3.59h-9.158v-4.481h9.158V7.96h-9.158V3.883h9.158V.292H23.59zm37.705 0v19.331h12.748v-3.59h-9.158v-4.481h9.158V7.96h-9.158V3.883h9.158V.292H61.295zm46.179 12.415h-3.702v3.827h3.702v-3.827zM82.283 5.442c0-1.183 1.03-1.99 2.686-1.99 1.712 0 2.589.904 2.797 2.06h3.98C91.442 1.934 88.366 0 85.012 0c-3.967 0-6.695 2.269-6.695 5.358 0 7.266 9.826 5.08 9.826 9.033 0 1.294-1.058 2.157-3.076 2.157-2.101 0-3.215-1.1-3.298-2.895H77.8C77.885 17.578 80.738 20 85.108 20c4.315 0 6.973-2.463 6.973-5.498.042-7.32-9.798-5.15-9.798-9.06z" fill="#111"/><path d="M107.725 5.442c0-1.183 1.029-1.99 2.686-1.99 1.712 0 2.588.904 2.797 2.06h3.981C116.882 1.934 113.807 0 110.452 0c-3.966 0-6.694 2.269-6.694 5.358 0 7.266 9.826 5.08 9.826 9.033 0 1.155-.793 1.963-2.408 2.13v3.465c3.967-.223 6.375-2.589 6.375-5.484 0-7.32-9.826-5.15-9.826-9.06zm17.619-4.398h-.055c-.209.751-.446 1.475-.682 2.227h1.406c-.223-.738-.488-1.476-.669-2.227zm.682-.794l1.796 5.261h-1.128l-.417-1.336h-1.935l-.417 1.336h-1.1l1.782-5.26h1.419zm4.022 0l.808 2.617c.139.46.264 1.016.403 1.475h.056c.111-.459.236-1.016.376-1.475l.765-2.617h1.698v5.261h-1.044v-2.49c0-.516.028-1.253.042-1.768h-.056l-.487 1.642-.779 2.63h-1.225l-.793-2.63c-.167-.529-.32-1.114-.473-1.642h-.056c.028.515.056 1.252.056 1.767v2.491h-.989V.251h1.698z" fill="#111"/></svg>